<?xml version="1.0" encoding="UTF-8" standalone="no"?><!DOCTYPE svg PUBLIC "-//W3C//DTD SVG 1.1//EN" "http://www.w3.org/Graphics/SVG/1.1/DTD/svg11.dtd"><svg width="100%" height="100%" viewBox="0 0 1123 1130" version="1.1" xmlns="http://www.w3.org/2000/svg" xmlns:xlink="http://www.w3.org/1999/xlink" xml:space="preserve" xmlns:serif="http://www.serif.com/" style="fill-rule:evenodd;clip-rule:evenodd;stroke-linejoin:round;stroke-miterlimit:2;"><g><path d="M1061,873.444l-168.083,0c-65.676,0 -118.917,-53.241 -118.917,-118.917l0,-4.166c0,-65.676 53.241,-118.917 118.917,-118.917l168.083,0l0,-155.588c-0,-48.276 -39.136,-87.412 -87.412,-87.412l-886.176,0c-48.276,0 -87.412,39.136 -87.412,87.412l0,566.177c0,48.276 39.136,87.411 87.412,87.411l886.176,0c48.276,0 87.412,-39.135 87.412,-87.411l-0,-168.589Zm-602,-12.645c0.079,-12.351 10.13,-22.355 22.5,-22.355c12.418,0 22.5,10.082 22.5,22.5c-0,3.13 -0.64,6.111 -1.797,8.821c-9.696,40.034 -37.401,62.28 -85.203,64.679c-45.009,-2.334 -72.955,-23.588 -85.067,-62.391c-1.867,-3.279 -2.933,-7.07 -2.933,-11.109c0,-12.418 10.082,-22.5 22.5,-22.5c12.418,0 22.5,10.082 22.5,22.5l0.105,0.274c8.987,23.233 23.182,32.245 41.003,31.357c0.631,-0.033 1.262,-0.057 1.894,-0.075c21.423,-0.646 35.983,-10.397 41.998,-31.556l0,-0.145Zm158,-222.355c59.055,0 107,48.842 107,109c0,60.159 -47.945,109 -107,109c-59.055,0 -107,-48.841 -107,-109c0,-60.158 47.945,-109 107,-109Zm-456.289,145.069c-2.191,12.156 -15.24,20.054 -29.204,17.642c-14.019,-2.422 -23.684,-14.322 -21.57,-26.559c0.532,-3.084 1.762,-5.896 3.53,-8.341c17.759,-37.56 52.82,-54.08 107.192,-47.123c50.412,11.075 78.342,37.468 85.411,78.067c1.549,3.595 2.108,7.539 1.42,11.518c-2.113,12.237 -15.21,20.206 -29.229,17.785c-14.018,-2.421 -23.684,-14.322 -21.57,-26.559l-0.073,-0.29c-6.19,-24.646 -20.68,-36.295 -40.95,-38.894c-0.717,-0.091 -1.434,-0.189 -2.15,-0.295c-24.294,-3.541 -42.391,3.229 -52.782,22.906l-0.025,0.143Z" style="fill:#e5e3e5;"/><g><g><g><circle cx="585.5" cy="719.444" r="37" style="fill:#fff;"/><circle cx="656" cy="787.444" r="23" style="fill:#fff;"/></g></g><path d="M1061,873.444l-168.083,0c-65.676,0 -118.917,-53.241 -118.917,-118.917l0,-4.166c0,-65.676 53.241,-118.917 118.917,-118.917l168.083,0l-0,-155.588c0,-23.183 -9.209,-45.416 -25.602,-61.809c-16.393,-16.393 -38.627,-25.603 -61.81,-25.603l-886.176,0c-23.183,0 -45.417,9.21 -61.81,25.603c-16.393,16.393 -25.602,38.626 -25.602,61.809l0,493.246c0,64.254 52.088,116.342 116.342,116.342l828.316,0c64.254,0 116.342,-52.088 116.342,-116.342l-0,-95.658Zm-602,-12.645c0.079,-12.351 10.13,-22.355 22.5,-22.355c12.418,0 22.5,10.082 22.5,22.5c-0,3.13 -0.64,6.111 -1.797,8.821c-9.696,40.034 -37.401,62.28 -85.203,64.679c-45.009,-2.334 -72.955,-23.588 -85.067,-62.391c-1.867,-3.279 -2.933,-7.07 -2.933,-11.109c0,-12.418 10.082,-22.5 22.5,-22.5c12.418,0 22.5,10.082 22.5,22.5l0.105,0.274c8.987,23.233 23.182,32.245 41.003,31.357c0.631,-0.033 1.262,-0.057 1.894,-0.075c21.423,-0.646 35.983,-10.397 41.998,-31.556l0,-0.145Zm158,-222.355c59.055,0 107,48.842 107,109c-0,60.159 -47.945,109 -107,109c-59.055,0 -107,-48.841 -107,-109c0,-60.158 47.945,-109 107,-109Zm-456.289,145.069c-2.191,12.156 -15.24,20.054 -29.204,17.642c-14.019,-2.422 -23.684,-14.322 -21.57,-26.559c0.532,-3.084 1.762,-5.896 3.53,-8.341c17.759,-37.56 52.82,-54.08 107.192,-47.123c50.412,11.075 78.342,37.468 85.411,78.067c1.549,3.595 2.108,7.539 1.42,11.518c-2.113,12.237 -15.21,20.206 -29.229,17.785c-14.018,-2.421 -23.684,-14.322 -21.57,-26.559l-0.073,-0.29c-6.19,-24.646 -20.68,-36.295 -40.95,-38.894c-0.717,-0.091 -1.434,-0.189 -2.15,-0.295c-24.294,-3.541 -42.391,3.229 -52.782,22.906l-0.025,0.143Z" style="fill:#f9f7f8;"/><ellipse cx="162.5" cy="895.944" rx="55.5" ry="39.5" style="fill:#f4864d;"/><ellipse cx="695.5" cy="895.944" rx="55.5" ry="39.5" style="fill:#f4864d;"/></g><g><path d="M149,345.444l635,-304c-0,0 -16,-42 -73,-41c-0,0 -20,-4 -44,12c-24,16 -518,333 -518,333Z" style="fill:#fff;"/><path d="M269,345.444l142,0l446,-211c-0,0 -15,-44 -56,-43c-0,0 -25,-1 -40,10c-15,11 -492,244 -492,244Z" style="fill:#fff;"/><path d="M690,345.444l202,-94l35,94l-237,0Z" style="fill:#fff;"/></g><g><path d="M1123,712.776c0,-25.036 -20.295,-45.332 -45.331,-45.332c-47.187,0 -122.004,0 -178.889,0c-43.509,0 -78.78,35.271 -78.78,78.781l0,12.439c0,43.509 35.271,78.78 78.78,78.78l178.889,0c25.036,0 45.331,-20.295 45.331,-45.331c-0,-24.549 -0,-54.788 -0,-79.337Z" style="fill:#f4864d;"/><ellipse cx="921.75" cy="752.444" rx="49.75" ry="47" style="fill:#fff;"/></g></g></svg>